<svg xmlns="http://www.w3.org/2000/svg" viewBox="0 0 52 59" xmlns:xlink="http://www.w3.org/1999/xlink">
  <path fill="#F8E418" fill-rule="nonzero" d="M17.76346 41.2144l.00622-.00622c-2.9796-2.9874-4.82628-7.1091-4.82628-11.65043 0-4.54964 1.8467-8.67133 4.83043-11.65457l-.0083-.0083c2.52727-2.53037 2.52727-6.63128 0-9.15748-2.52726-2.53035-6.62317-2.53035-9.15043 0C3.29084 14.06402 0 21.42656 0 29.55775c0 8.1312 3.29084 15.48958 8.6151 20.8162 2.52726 2.53035 6.62317 2.53035 9.15043 0 2.52727-2.5262 2.52727-6.6271 0-9.15746-.00083-.0009-.00166-.0013-.00207-.0021" mask="url(#b)"/>
  <path fill="#56AED2" fill-rule="nonzero" d="M17.76553 17.89653l.00623.00623c2.98374-2.98324 7.1004-4.83218 11.6362-4.83218 4.5441 0 8.66074 1.84894 11.64034 4.83634l.0083-.0083c2.52726 2.53034 6.62317 2.53034 9.14628 0 2.52726-2.53037 2.52726-6.63128 0-9.16163C44.88278 3.4062 37.52922.1113 29.40795.1113 21.2867.11132 13.9373 3.4062 8.61718 8.737c-2.52727 2.53034-2.52727 6.63125 0 9.1616 2.5231 2.53036 6.61902 2.53036 9.14628 0l.00207-.00207"/>
  <path fill="#E0534E" fill-rule="nonzero" d="M41.05452 41.21524l-.00622-.00665c-2.98375 2.9832-7.1004 4.8321-11.6362 4.8321-4.5441 0-8.66075-1.849-11.64034-4.8364l-.0083.0083c-2.52726-2.5304-6.62317-2.5304-9.14628 0-2.52727 2.5303-2.52727 6.6312 0 9.1616C13.93728 55.7051 21.29084 59 29.4121 59c8.12127 0 15.47067-3.29486 20.79078-8.62563 2.52726-2.53036 2.52726-6.63127 0-9.16162-2.5231-2.53036-6.61902-2.53036-9.14628 0-.00083.00083-.00125.00166-.00208.0025"/>
  <path fill="#1D78A4" fill-rule="nonzero" d="M17.76553 17.89487c-2.52726 2.53035-6.62317 2.53035-9.15043 0-2.52726-2.53036-2.52726-6.63127 0-9.15747 2.52726-2.53035 6.62317-2.53035 9.15043 0 2.52727 2.5262 2.52727 6.6271 0 9.15747"/>
  <path fill="#BE433B" fill-rule="nonzero" d="M17.76553 50.37395c-2.52726 2.53035-6.62317 2.53035-9.15043 0-2.52726-2.5262-2.52726-6.6271 0-9.15746 2.52726-2.5304 6.62317-2.5304 9.15043 0 2.52727 2.5303 2.52727 6.6312 0 9.1574"/>
</svg>
